{"title":"The Big Bang Theory_S05_E02_The Infestation Hypothesis_1080i","uid":6699310,"size":365252126,"categoryP":"video","categoryS":"hd___tv_shows","magnet":"?xt=urn:btih:7c4271c53543b7605bd47df0b03cac17d4280da3&amp;dn=The+Big+Bang+Theory_S05_E02_The+Infestation+Hypothesis_1080i&amp;tr=udp%3A%2F%2Ftracker.openbittorrent.com%3A80&amp;tr=udp%3A%2F%2Fopen.demonii.com%3A1337&amp;tr=udp%3A%2F%2Ftracker.coppersurfer.tk%3A6969&amp;tr=udp%3A%2F%2Fexodus.desync.com%3A6969","seeders":0,"leechers":0,"uploader":"blisbell","files":1,"time":1316900203,"description":"Format                           : AVC\nFormat/Info                      : Advanced Video Codec\nFormat profile                   : &lt;a class=&quot;__cf_email__&quot; href=&quot;/cdn-cgi/l/email-protection&quot; data-cfemail=&quot;460e2f212e060a726876&quot;&gt;[email&amp;#160;protected]&lt;/a&gt;&lt;script data-cfhash='f9e31' type=&quot;text/javascript&quot;&gt;\n/* &lt;![CDATA[ */!function(){try{var t=&quot;currentScript&quot;in document?document.currentScript:function(){for(var t=document.getElementsByTagName(&quot;script&quot;),e=t.length;e--;)if(t[e].getAttribute(&quot;data-cfhash&quot;))return t[e]}();if(t&amp;&amp;t.previousSibling){var e,r,n,i,c=t.previousSibling,a=c.getAttribute(&quot;data-cfemail&quot;);if(a){for(e=&quot;&quot;,r=parseInt(a.substr(0,2),16),n=2;a.length-n;n+=2)i=parseInt(a.substr(n,2),16)^r,e+=String.fromCharCode(i);e=document.createTextNode(e),c.parentNode.replaceChild(e,c)}t.parentNode.removeChild(t);}}catch(u){}}()/* ]]&gt; */&lt;/script&gt;\nFormat settings, CABAC           : Yes\nFormat settings, ReFrames        : 4 frames\nCodec ID                         : V_MPEG4/ISO/AVC\nDuration                         : 40mn 36s\nBit rate                         : 2 769 Kbps\nWidth                            : 1 920 pixels\nHeight                           : 1 088 pixels\nDisplay aspect ratio             : 16:9\nFrame rate mode                  : Variable\nFrame rate                       : 29.970 fps\nColor space                      : YUV\nChroma subsampling               : 4:2:0\nBit depth                        : 8 bits\nScan type                        : Progressive\nBits/(Pixel*Frame)               : 0.044\nStream size                      : 804 MiB (84%)\nWriting library                  : x264 core 106 Ubuntu_2:0.106.1741-3\n\nFormat                           : AC-3\nFormat/Info                      : Audio Coding 3\nMode extension                   : CM (complete main)\nCodec ID                         : A_AC3\nDuration                         : 40mn 36s\nBit rate mode                    : Constant\nBit rate                         : 448 Kbps\nChannel(s)                       : 6 channels\nChannel positions                : Front: L C R, Side: L R, LFE\nSampling rate                    : 48.0 KHz\nBit depth                        : 16 bits\nCompression mode                 : Lossy\nDelay relative to video          : -1mn 5s\nStream size                      : 130 MiB (14%)\nLanguage                         : English","torrent":{"xt":"urn:btih:7c4271c53543b7605bd47df0b03cac17d4280da3","amp;dn":"The+Big+Bang+Theory_S05_E02_The+Infestation+Hypothesis_1080i","amp;tr":["udp%3A%2F%2Ftracker.openbittorrent.com%3A80","udp%3A%2F%2Fopen.demonii.com%3A1337","udp%3A%2F%2Ftracker.coppersurfer.tk%3A6969","udp%3A%2F%2Fexodus.desync.com%3A6969"],"infoHash":"7c4271c53543b7605bd47df0b03cac17d4280da3","infoHashBuffer":{"type":"Buffer","data":[124,66,113,197,53,67,183,96,91,212,125,240,176,60,172,23,212,40,13,163]},"announce":[],"urlList":[]}}